<mxfile host="app.diagrams.net" modified="2024-03-01T04:37:04.574Z" agent="Mozilla/5.0 (Windows NT 10.0; Win64; x64) AppleWebKit/537.36 (KHTML, like Gecko) Chrome/122.0.0.0 Safari/537.36" etag="zLhhOFTUwSnPrDoqzBfS" version="24.0.0" type="github">
  <diagram id="prtHgNgQTEPvFCAcTncT" name="Page-1">
    <mxGraphModel dx="880" dy="494" grid="1" gridSize="10" guides="1" tooltips="1" connect="1" arrows="1" fold="1" page="1" pageScale="1" pageWidth="827" pageHeight="1169" math="0" shadow="0">
      <root>
        <mxCell id="0" />
        <mxCell id="1" parent="0" />
        <mxCell id="dNxyNK7c78bLwvsdeMH5-19" value="line0" style="swimlane;html=1;childLayout=stackLayout;resizeParent=1;resizeParentMax=0;horizontal=0;startSize=20;horizontalStack=0;labelBackgroundColor=none;fillColor=#FAE5C7;strokeColor=#0F8B8D;fontColor=#143642;sketch=1;curveFitting=1;jiggle=2;rounded=1;" parent="1" vertex="1">
          <mxGeometry x="120" y="120" width="450" height="360" as="geometry" />
        </mxCell>
        <mxCell id="dNxyNK7c78bLwvsdeMH5-27" value="" style="edgeStyle=orthogonalEdgeStyle;rounded=1;orthogonalLoop=1;jettySize=auto;html=1;dashed=1;endArrow=none;endFill=0;labelBackgroundColor=none;strokeColor=#A8201A;fontColor=default;sketch=1;curveFitting=1;jiggle=2;" parent="dNxyNK7c78bLwvsdeMH5-19" source="dNxyNK7c78bLwvsdeMH5-24" target="dNxyNK7c78bLwvsdeMH5-26" edge="1">
          <mxGeometry relative="1" as="geometry" />
        </mxCell>
        <mxCell id="dNxyNK7c78bLwvsdeMH5-31" style="edgeStyle=orthogonalEdgeStyle;rounded=1;orthogonalLoop=1;jettySize=auto;html=1;endArrow=classic;endFill=1;labelBackgroundColor=none;strokeColor=#A8201A;fontColor=default;sketch=1;curveFitting=1;jiggle=2;" parent="dNxyNK7c78bLwvsdeMH5-19" source="dNxyNK7c78bLwvsdeMH5-28" target="dNxyNK7c78bLwvsdeMH5-30" edge="1">
          <mxGeometry relative="1" as="geometry" />
        </mxCell>
        <mxCell id="dNxyNK7c78bLwvsdeMH5-35" style="edgeStyle=orthogonalEdgeStyle;rounded=1;orthogonalLoop=1;jettySize=auto;html=1;endArrow=classic;endFill=1;labelBackgroundColor=none;strokeColor=#A8201A;fontColor=default;sketch=1;curveFitting=1;jiggle=2;" parent="dNxyNK7c78bLwvsdeMH5-19" source="dNxyNK7c78bLwvsdeMH5-28" target="dNxyNK7c78bLwvsdeMH5-34" edge="1">
          <mxGeometry relative="1" as="geometry" />
        </mxCell>
        <mxCell id="dNxyNK7c78bLwvsdeMH5-38" style="edgeStyle=orthogonalEdgeStyle;rounded=1;orthogonalLoop=1;jettySize=auto;html=1;endArrow=classic;endFill=1;labelBackgroundColor=none;strokeColor=#A8201A;fontColor=default;sketch=1;curveFitting=1;jiggle=2;" parent="dNxyNK7c78bLwvsdeMH5-19" source="dNxyNK7c78bLwvsdeMH5-26" target="dNxyNK7c78bLwvsdeMH5-36" edge="1">
          <mxGeometry relative="1" as="geometry">
            <Array as="points">
              <mxPoint x="180" y="340" />
              <mxPoint x="400" y="340" />
            </Array>
          </mxGeometry>
        </mxCell>
        <mxCell id="dNxyNK7c78bLwvsdeMH5-20" value="Lane 1" style="swimlane;html=1;startSize=20;horizontal=0;labelBackgroundColor=none;fillColor=#FAE5C7;strokeColor=#0F8B8D;fontColor=#143642;sketch=1;curveFitting=1;jiggle=2;rounded=1;" parent="dNxyNK7c78bLwvsdeMH5-19" vertex="1">
          <mxGeometry x="20" width="430" height="120" as="geometry" />
        </mxCell>
        <mxCell id="dNxyNK7c78bLwvsdeMH5-25" value="" style="edgeStyle=orthogonalEdgeStyle;rounded=1;orthogonalLoop=1;jettySize=auto;html=1;labelBackgroundColor=none;strokeColor=#A8201A;fontColor=default;sketch=1;curveFitting=1;jiggle=2;" parent="dNxyNK7c78bLwvsdeMH5-20" source="dNxyNK7c78bLwvsdeMH5-23" target="dNxyNK7c78bLwvsdeMH5-24" edge="1">
          <mxGeometry relative="1" as="geometry" />
        </mxCell>
        <mxCell id="dNxyNK7c78bLwvsdeMH5-23" value="" style="ellipse;whiteSpace=wrap;html=1;labelBackgroundColor=none;fillColor=#FAE5C7;strokeColor=#0F8B8D;fontColor=#143642;sketch=1;curveFitting=1;jiggle=2;rounded=1;" parent="dNxyNK7c78bLwvsdeMH5-20" vertex="1">
          <mxGeometry x="40" y="40" width="40" height="40" as="geometry" />
        </mxCell>
        <mxCell id="dNxyNK7c78bLwvsdeMH5-24" value="" style="rounded=1;whiteSpace=wrap;html=1;fontFamily=Helvetica;fontSize=12;fontColor=#143642;align=center;labelBackgroundColor=none;fillColor=#FAE5C7;strokeColor=#0F8B8D;sketch=1;curveFitting=1;jiggle=2;" parent="dNxyNK7c78bLwvsdeMH5-20" vertex="1">
          <mxGeometry x="120" y="30" width="80" height="60" as="geometry" />
        </mxCell>
        <mxCell id="dNxyNK7c78bLwvsdeMH5-33" value="" style="edgeStyle=orthogonalEdgeStyle;rounded=1;orthogonalLoop=1;jettySize=auto;html=1;endArrow=classic;endFill=1;labelBackgroundColor=none;strokeColor=#A8201A;fontColor=default;sketch=1;curveFitting=1;jiggle=2;" parent="dNxyNK7c78bLwvsdeMH5-20" source="dNxyNK7c78bLwvsdeMH5-30" target="dNxyNK7c78bLwvsdeMH5-32" edge="1">
          <mxGeometry relative="1" as="geometry" />
        </mxCell>
        <mxCell id="dNxyNK7c78bLwvsdeMH5-30" value="" style="rounded=1;whiteSpace=wrap;html=1;fontFamily=Helvetica;fontSize=12;fontColor=#143642;align=center;labelBackgroundColor=none;fillColor=#FAE5C7;strokeColor=#0F8B8D;sketch=1;curveFitting=1;jiggle=2;" parent="dNxyNK7c78bLwvsdeMH5-20" vertex="1">
          <mxGeometry x="240" y="30" width="80" height="60" as="geometry" />
        </mxCell>
        <mxCell id="dNxyNK7c78bLwvsdeMH5-32" value="" style="ellipse;whiteSpace=wrap;html=1;labelBackgroundColor=none;fillColor=#FAE5C7;strokeColor=#0F8B8D;fontColor=#143642;sketch=1;curveFitting=1;jiggle=2;rounded=1;" parent="dNxyNK7c78bLwvsdeMH5-20" vertex="1">
          <mxGeometry x="360" y="40" width="40" height="40" as="geometry" />
        </mxCell>
        <mxCell id="dNxyNK7c78bLwvsdeMH5-21" value="Lane 2" style="swimlane;html=1;startSize=20;horizontal=0;labelBackgroundColor=none;fillColor=#FAE5C7;strokeColor=#0F8B8D;fontColor=#143642;sketch=1;curveFitting=1;jiggle=2;rounded=1;" parent="dNxyNK7c78bLwvsdeMH5-19" vertex="1">
          <mxGeometry x="20" y="120" width="430" height="120" as="geometry" />
        </mxCell>
        <mxCell id="dNxyNK7c78bLwvsdeMH5-29" value="" style="edgeStyle=orthogonalEdgeStyle;rounded=1;orthogonalLoop=1;jettySize=auto;html=1;endArrow=classic;endFill=1;labelBackgroundColor=none;strokeColor=#A8201A;fontColor=default;sketch=1;curveFitting=1;jiggle=2;" parent="dNxyNK7c78bLwvsdeMH5-21" source="dNxyNK7c78bLwvsdeMH5-26" target="dNxyNK7c78bLwvsdeMH5-28" edge="1">
          <mxGeometry relative="1" as="geometry" />
        </mxCell>
        <mxCell id="dNxyNK7c78bLwvsdeMH5-26" value="" style="rounded=1;whiteSpace=wrap;html=1;fontFamily=Helvetica;fontSize=12;fontColor=#143642;align=center;labelBackgroundColor=none;fillColor=#FAE5C7;strokeColor=#0F8B8D;sketch=1;curveFitting=1;jiggle=2;" parent="dNxyNK7c78bLwvsdeMH5-21" vertex="1">
          <mxGeometry x="120" y="30" width="80" height="60" as="geometry" />
        </mxCell>
        <mxCell id="dNxyNK7c78bLwvsdeMH5-28" value="" style="rhombus;whiteSpace=wrap;html=1;fontFamily=Helvetica;fontSize=12;fontColor=#143642;align=center;labelBackgroundColor=none;fillColor=#FAE5C7;strokeColor=#0F8B8D;sketch=1;curveFitting=1;jiggle=2;rounded=1;" parent="dNxyNK7c78bLwvsdeMH5-21" vertex="1">
          <mxGeometry x="260" y="40" width="40" height="40" as="geometry" />
        </mxCell>
        <mxCell id="dNxyNK7c78bLwvsdeMH5-22" value="Lane 3" style="swimlane;html=1;startSize=20;horizontal=0;labelBackgroundColor=none;fillColor=#FAE5C7;strokeColor=#0F8B8D;fontColor=#143642;sketch=1;curveFitting=1;jiggle=2;rounded=1;" parent="dNxyNK7c78bLwvsdeMH5-19" vertex="1">
          <mxGeometry x="20" y="240" width="430" height="120" as="geometry" />
        </mxCell>
        <mxCell id="dNxyNK7c78bLwvsdeMH5-37" value="" style="edgeStyle=orthogonalEdgeStyle;rounded=1;orthogonalLoop=1;jettySize=auto;html=1;endArrow=classic;endFill=1;labelBackgroundColor=none;strokeColor=#A8201A;fontColor=default;sketch=1;curveFitting=1;jiggle=2;" parent="dNxyNK7c78bLwvsdeMH5-22" source="dNxyNK7c78bLwvsdeMH5-34" target="dNxyNK7c78bLwvsdeMH5-36" edge="1">
          <mxGeometry relative="1" as="geometry" />
        </mxCell>
        <mxCell id="dNxyNK7c78bLwvsdeMH5-34" value="" style="rounded=1;whiteSpace=wrap;html=1;fontFamily=Helvetica;fontSize=12;fontColor=#143642;align=center;labelBackgroundColor=none;fillColor=#FAE5C7;strokeColor=#0F8B8D;sketch=1;curveFitting=1;jiggle=2;" parent="dNxyNK7c78bLwvsdeMH5-22" vertex="1">
          <mxGeometry x="240" y="20" width="80" height="60" as="geometry" />
        </mxCell>
        <mxCell id="dNxyNK7c78bLwvsdeMH5-36" value="" style="rhombus;whiteSpace=wrap;html=1;fontFamily=Helvetica;fontSize=12;fontColor=#143642;align=center;labelBackgroundColor=none;fillColor=#FAE5C7;strokeColor=#0F8B8D;sketch=1;curveFitting=1;jiggle=2;rounded=1;" parent="dNxyNK7c78bLwvsdeMH5-22" vertex="1">
          <mxGeometry x="360" y="30" width="40" height="40" as="geometry" />
        </mxCell>
        <mxCell id="O45_TjRWL43LWCIV90A2-1" value="Vertical Tree Layout" style="swimlane;startSize=20;horizontal=1;childLayout=treeLayout;horizontalTree=0;resizable=0;containerType=tree;fontSize=12;labelBackgroundColor=none;fillColor=#FAE5C7;strokeColor=#0F8B8D;fontColor=#143642;sketch=1;curveFitting=1;jiggle=2;rounded=1;" vertex="1" parent="1">
          <mxGeometry x="270" y="150" width="280" height="190" as="geometry" />
        </mxCell>
        <mxCell id="O45_TjRWL43LWCIV90A2-2" value="Root" style="whiteSpace=wrap;html=1;labelBackgroundColor=none;fillColor=#FAE5C7;strokeColor=#0F8B8D;fontColor=#143642;sketch=1;curveFitting=1;jiggle=2;rounded=1;" vertex="1" parent="O45_TjRWL43LWCIV90A2-1">
          <mxGeometry x="90" y="40" width="100" height="40" as="geometry" />
        </mxCell>
        <mxCell id="O45_TjRWL43LWCIV90A2-3" value="Child 1" style="whiteSpace=wrap;html=1;labelBackgroundColor=none;fillColor=#FAE5C7;strokeColor=#0F8B8D;fontColor=#143642;sketch=1;curveFitting=1;jiggle=2;rounded=1;" vertex="1" parent="O45_TjRWL43LWCIV90A2-1">
          <mxGeometry x="20" y="130" width="100" height="40" as="geometry" />
        </mxCell>
        <mxCell id="O45_TjRWL43LWCIV90A2-4" value="" style="edgeStyle=elbowEdgeStyle;elbow=vertical;html=1;rounded=1;curved=0;sourcePerimeterSpacing=0;targetPerimeterSpacing=0;startSize=6;endSize=6;labelBackgroundColor=none;strokeColor=#A8201A;fontColor=default;sketch=1;curveFitting=1;jiggle=2;" edge="1" parent="O45_TjRWL43LWCIV90A2-1" source="O45_TjRWL43LWCIV90A2-2" target="O45_TjRWL43LWCIV90A2-3">
          <mxGeometry relative="1" as="geometry" />
        </mxCell>
        <mxCell id="O45_TjRWL43LWCIV90A2-5" value="Child 2" style="whiteSpace=wrap;html=1;labelBackgroundColor=none;fillColor=#FAE5C7;strokeColor=#0F8B8D;fontColor=#143642;sketch=1;curveFitting=1;jiggle=2;rounded=1;" vertex="1" parent="O45_TjRWL43LWCIV90A2-1">
          <mxGeometry x="160" y="130" width="100" height="40" as="geometry" />
        </mxCell>
        <mxCell id="O45_TjRWL43LWCIV90A2-6" value="" style="edgeStyle=elbowEdgeStyle;elbow=vertical;html=1;rounded=1;curved=0;sourcePerimeterSpacing=0;targetPerimeterSpacing=0;startSize=6;endSize=6;labelBackgroundColor=none;strokeColor=#A8201A;fontColor=default;sketch=1;curveFitting=1;jiggle=2;" edge="1" parent="O45_TjRWL43LWCIV90A2-1" source="O45_TjRWL43LWCIV90A2-2" target="O45_TjRWL43LWCIV90A2-5">
          <mxGeometry relative="1" as="geometry" />
        </mxCell>
        <mxCell id="O45_TjRWL43LWCIV90A2-7" value="" style="shape=datastore;whiteSpace=wrap;html=1;fillColor=#FAE5C7;strokeColor=#0F8B8D;labelBackgroundColor=none;fontColor=#143642;sketch=1;curveFitting=1;jiggle=2;rounded=1;" vertex="1" parent="1">
          <mxGeometry x="380" y="210" width="60" height="60" as="geometry" />
        </mxCell>
        <mxCell id="O45_TjRWL43LWCIV90A2-8" value="" style="shape=switch;whiteSpace=wrap;html=1;labelBackgroundColor=none;fillColor=#FAE5C7;strokeColor=#0F8B8D;fontColor=#143642;sketch=1;curveFitting=1;jiggle=2;rounded=1;" vertex="1" parent="1">
          <mxGeometry x="380" y="220" width="60" height="60" as="geometry" />
        </mxCell>
        <mxCell id="O45_TjRWL43LWCIV90A2-9" value="" style="shape=tee;whiteSpace=wrap;html=1;labelBackgroundColor=none;fillColor=#FAE5C7;strokeColor=#0F8B8D;fontColor=#143642;sketch=1;curveFitting=1;jiggle=2;rounded=1;" vertex="1" parent="1">
          <mxGeometry x="370" y="210" width="80" height="80" as="geometry" />
        </mxCell>
        <mxCell id="O45_TjRWL43LWCIV90A2-10" value="" style="shape=tee;whiteSpace=wrap;html=1;labelBackgroundColor=none;fillColor=#FAE5C7;strokeColor=#0F8B8D;fontColor=#143642;sketch=1;curveFitting=1;jiggle=2;rounded=1;" vertex="1" parent="1">
          <mxGeometry x="370" y="210" width="80" height="80" as="geometry" />
        </mxCell>
        <mxCell id="O45_TjRWL43LWCIV90A2-11" value="" style="shape=datastore;whiteSpace=wrap;html=1;labelBackgroundColor=none;fillColor=#FAE5C7;strokeColor=#0F8B8D;fontColor=#143642;sketch=1;curveFitting=1;jiggle=2;rounded=1;" vertex="1" parent="1">
          <mxGeometry x="380" y="220" width="60" height="60" as="geometry" />
        </mxCell>
        <mxCell id="O45_TjRWL43LWCIV90A2-12" value="Horizontal Tree Layout" style="swimlane;startSize=20;horizontal=0;childLayout=treeLayout;horizontalTree=1;resizable=0;containerType=tree;fontSize=12;labelBackgroundColor=none;fillColor=#FAE5C7;strokeColor=#0F8B8D;fontColor=#143642;sketch=1;curveFitting=1;jiggle=2;rounded=1;" vertex="1" parent="1">
          <mxGeometry x="260" y="170" width="310" height="160" as="geometry" />
        </mxCell>
        <mxCell id="O45_TjRWL43LWCIV90A2-13" value="Root" style="whiteSpace=wrap;html=1;labelBackgroundColor=none;fillColor=#FAE5C7;strokeColor=#0F8B8D;fontColor=#143642;sketch=1;curveFitting=1;jiggle=2;rounded=1;" vertex="1" parent="O45_TjRWL43LWCIV90A2-12">
          <mxGeometry x="40" y="60" width="100" height="40" as="geometry" />
        </mxCell>
        <mxCell id="O45_TjRWL43LWCIV90A2-14" value="Child 1" style="whiteSpace=wrap;html=1;labelBackgroundColor=none;fillColor=#FAE5C7;strokeColor=#0F8B8D;fontColor=#143642;sketch=1;curveFitting=1;jiggle=2;rounded=1;" vertex="1" parent="O45_TjRWL43LWCIV90A2-12">
          <mxGeometry x="190" y="20" width="100" height="40" as="geometry" />
        </mxCell>
        <mxCell id="O45_TjRWL43LWCIV90A2-15" value="" style="edgeStyle=elbowEdgeStyle;elbow=horizontal;html=1;rounded=1;curved=0;sourcePerimeterSpacing=0;targetPerimeterSpacing=0;startSize=6;endSize=6;labelBackgroundColor=none;strokeColor=#A8201A;fontColor=default;sketch=1;curveFitting=1;jiggle=2;" edge="1" parent="O45_TjRWL43LWCIV90A2-12" source="O45_TjRWL43LWCIV90A2-13" target="O45_TjRWL43LWCIV90A2-14">
          <mxGeometry relative="1" as="geometry" />
        </mxCell>
        <mxCell id="O45_TjRWL43LWCIV90A2-16" value="Child 2" style="whiteSpace=wrap;html=1;labelBackgroundColor=none;fillColor=#FAE5C7;strokeColor=#0F8B8D;fontColor=#143642;sketch=1;curveFitting=1;jiggle=2;rounded=1;" vertex="1" parent="O45_TjRWL43LWCIV90A2-12">
          <mxGeometry x="190" y="100" width="100" height="40" as="geometry" />
        </mxCell>
        <mxCell id="O45_TjRWL43LWCIV90A2-17" value="" style="edgeStyle=elbowEdgeStyle;elbow=horizontal;html=1;rounded=1;curved=0;sourcePerimeterSpacing=0;targetPerimeterSpacing=0;startSize=6;endSize=6;labelBackgroundColor=none;strokeColor=#A8201A;fontColor=default;sketch=1;curveFitting=1;jiggle=2;" edge="1" parent="O45_TjRWL43LWCIV90A2-12" source="O45_TjRWL43LWCIV90A2-13" target="O45_TjRWL43LWCIV90A2-16">
          <mxGeometry relative="1" as="geometry" />
        </mxCell>
        <mxCell id="O45_TjRWL43LWCIV90A2-18" value="Horizontal Tree Layout" style="swimlane;startSize=20;horizontal=0;childLayout=treeLayout;horizontalTree=1;resizable=0;containerType=tree;fontSize=12;labelBackgroundColor=none;fillColor=#FAE5C7;strokeColor=#0F8B8D;fontColor=#143642;sketch=1;curveFitting=1;jiggle=2;rounded=1;" vertex="1" parent="1">
          <mxGeometry x="260" y="170" width="310" height="160" as="geometry" />
        </mxCell>
        <mxCell id="O45_TjRWL43LWCIV90A2-19" value="Root" style="whiteSpace=wrap;html=1;labelBackgroundColor=none;fillColor=#FAE5C7;strokeColor=#0F8B8D;fontColor=#143642;sketch=1;curveFitting=1;jiggle=2;rounded=1;" vertex="1" parent="O45_TjRWL43LWCIV90A2-18">
          <mxGeometry x="40" y="60" width="100" height="40" as="geometry" />
        </mxCell>
        <mxCell id="O45_TjRWL43LWCIV90A2-20" value="Child 1" style="whiteSpace=wrap;html=1;labelBackgroundColor=none;fillColor=#FAE5C7;strokeColor=#0F8B8D;fontColor=#143642;sketch=1;curveFitting=1;jiggle=2;rounded=1;" vertex="1" parent="O45_TjRWL43LWCIV90A2-18">
          <mxGeometry x="190" y="20" width="100" height="40" as="geometry" />
        </mxCell>
        <mxCell id="O45_TjRWL43LWCIV90A2-21" value="" style="edgeStyle=elbowEdgeStyle;elbow=horizontal;html=1;rounded=1;curved=0;sourcePerimeterSpacing=0;targetPerimeterSpacing=0;startSize=6;endSize=6;labelBackgroundColor=none;strokeColor=#A8201A;fontColor=default;sketch=1;curveFitting=1;jiggle=2;" edge="1" parent="O45_TjRWL43LWCIV90A2-18" source="O45_TjRWL43LWCIV90A2-19" target="O45_TjRWL43LWCIV90A2-20">
          <mxGeometry relative="1" as="geometry" />
        </mxCell>
        <mxCell id="O45_TjRWL43LWCIV90A2-22" value="Child 2" style="whiteSpace=wrap;html=1;labelBackgroundColor=none;fillColor=#FAE5C7;strokeColor=#0F8B8D;fontColor=#143642;sketch=1;curveFitting=1;jiggle=2;rounded=1;" vertex="1" parent="O45_TjRWL43LWCIV90A2-18">
          <mxGeometry x="190" y="100" width="100" height="40" as="geometry" />
        </mxCell>
        <mxCell id="O45_TjRWL43LWCIV90A2-23" value="" style="edgeStyle=elbowEdgeStyle;elbow=horizontal;html=1;rounded=1;curved=0;sourcePerimeterSpacing=0;targetPerimeterSpacing=0;startSize=6;endSize=6;labelBackgroundColor=none;strokeColor=#A8201A;fontColor=default;sketch=1;curveFitting=1;jiggle=2;" edge="1" parent="O45_TjRWL43LWCIV90A2-18" source="O45_TjRWL43LWCIV90A2-19" target="O45_TjRWL43LWCIV90A2-22">
          <mxGeometry relative="1" as="geometry" />
        </mxCell>
        <mxCell id="O45_TjRWL43LWCIV90A2-24" value="Horizontal Tree Layout" style="swimlane;startSize=20;horizontal=0;childLayout=treeLayout;horizontalTree=1;resizable=0;containerType=tree;fontSize=12;labelBackgroundColor=none;fillColor=#FAE5C7;strokeColor=#0F8B8D;fontColor=#143642;sketch=1;curveFitting=1;jiggle=2;rounded=1;" vertex="1" parent="1">
          <mxGeometry x="260" y="170" width="310" height="160" as="geometry" />
        </mxCell>
        <mxCell id="O45_TjRWL43LWCIV90A2-25" value="Root" style="whiteSpace=wrap;html=1;labelBackgroundColor=none;fillColor=#FAE5C7;strokeColor=#0F8B8D;fontColor=#143642;sketch=1;curveFitting=1;jiggle=2;rounded=1;" vertex="1" parent="O45_TjRWL43LWCIV90A2-24">
          <mxGeometry x="40" y="60" width="100" height="40" as="geometry" />
        </mxCell>
        <mxCell id="O45_TjRWL43LWCIV90A2-26" value="Child 1" style="whiteSpace=wrap;html=1;labelBackgroundColor=none;fillColor=#FAE5C7;strokeColor=#0F8B8D;fontColor=#143642;sketch=1;curveFitting=1;jiggle=2;rounded=1;" vertex="1" parent="O45_TjRWL43LWCIV90A2-24">
          <mxGeometry x="190" y="20" width="100" height="40" as="geometry" />
        </mxCell>
        <mxCell id="O45_TjRWL43LWCIV90A2-27" value="" style="edgeStyle=elbowEdgeStyle;elbow=horizontal;html=1;rounded=1;curved=0;sourcePerimeterSpacing=0;targetPerimeterSpacing=0;startSize=6;endSize=6;labelBackgroundColor=none;strokeColor=#A8201A;fontColor=default;sketch=1;curveFitting=1;jiggle=2;" edge="1" parent="O45_TjRWL43LWCIV90A2-24" source="O45_TjRWL43LWCIV90A2-25" target="O45_TjRWL43LWCIV90A2-26">
          <mxGeometry relative="1" as="geometry" />
        </mxCell>
        <mxCell id="O45_TjRWL43LWCIV90A2-28" value="Child 2" style="whiteSpace=wrap;html=1;labelBackgroundColor=none;fillColor=#FAE5C7;strokeColor=#0F8B8D;fontColor=#143642;sketch=1;curveFitting=1;jiggle=2;rounded=1;" vertex="1" parent="O45_TjRWL43LWCIV90A2-24">
          <mxGeometry x="190" y="100" width="100" height="40" as="geometry" />
        </mxCell>
        <mxCell id="O45_TjRWL43LWCIV90A2-29" value="" style="edgeStyle=elbowEdgeStyle;elbow=horizontal;html=1;rounded=1;curved=0;sourcePerimeterSpacing=0;targetPerimeterSpacing=0;startSize=6;endSize=6;labelBackgroundColor=none;strokeColor=#A8201A;fontColor=default;sketch=1;curveFitting=1;jiggle=2;" edge="1" parent="O45_TjRWL43LWCIV90A2-24" source="O45_TjRWL43LWCIV90A2-25" target="O45_TjRWL43LWCIV90A2-28">
          <mxGeometry relative="1" as="geometry" />
        </mxCell>
        <mxCell id="O45_TjRWL43LWCIV90A2-30" value="Vertical Flow Layout" style="swimlane;startSize=20;horizontal=1;childLayout=flowLayout;flowOrientation=north;resizable=0;interRankCellSpacing=50;containerType=tree;fontSize=12;labelBackgroundColor=none;fillColor=#FAE5C7;strokeColor=#0F8B8D;fontColor=#143642;sketch=1;curveFitting=1;jiggle=2;rounded=1;" vertex="1" parent="1">
          <mxGeometry x="280" y="110" width="270" height="280" as="geometry" />
        </mxCell>
        <mxCell id="O45_TjRWL43LWCIV90A2-31" value="Start" style="whiteSpace=wrap;html=1;labelBackgroundColor=none;fillColor=#FAE5C7;strokeColor=#0F8B8D;fontColor=#143642;sketch=1;curveFitting=1;jiggle=2;rounded=1;" vertex="1" parent="O45_TjRWL43LWCIV90A2-30">
          <mxGeometry x="85" y="40" width="100" height="40" as="geometry" />
        </mxCell>
        <mxCell id="O45_TjRWL43LWCIV90A2-32" value="Task" style="whiteSpace=wrap;html=1;labelBackgroundColor=none;fillColor=#FAE5C7;strokeColor=#0F8B8D;fontColor=#143642;sketch=1;curveFitting=1;jiggle=2;rounded=1;" vertex="1" parent="O45_TjRWL43LWCIV90A2-30">
          <mxGeometry x="20" y="130" width="100" height="40" as="geometry" />
        </mxCell>
        <mxCell id="O45_TjRWL43LWCIV90A2-33" value="" style="html=1;rounded=1;curved=0;sourcePerimeterSpacing=0;targetPerimeterSpacing=0;startSize=6;endSize=6;noEdgeStyle=1;orthogonal=1;labelBackgroundColor=none;strokeColor=#A8201A;fontColor=default;sketch=1;curveFitting=1;jiggle=2;" edge="1" parent="O45_TjRWL43LWCIV90A2-30" source="O45_TjRWL43LWCIV90A2-31" target="O45_TjRWL43LWCIV90A2-32">
          <mxGeometry relative="1" as="geometry">
            <Array as="points">
              <mxPoint x="112.5" y="92" />
              <mxPoint x="70" y="118" />
            </Array>
          </mxGeometry>
        </mxCell>
        <mxCell id="O45_TjRWL43LWCIV90A2-34" value="Task" style="whiteSpace=wrap;html=1;labelBackgroundColor=none;fillColor=#FAE5C7;strokeColor=#0F8B8D;fontColor=#143642;sketch=1;curveFitting=1;jiggle=2;rounded=1;" vertex="1" parent="O45_TjRWL43LWCIV90A2-30">
          <mxGeometry x="150" y="130" width="100" height="40" as="geometry" />
        </mxCell>
        <mxCell id="O45_TjRWL43LWCIV90A2-35" value="" style="html=1;rounded=1;curved=0;sourcePerimeterSpacing=0;targetPerimeterSpacing=0;startSize=6;endSize=6;noEdgeStyle=1;orthogonal=1;labelBackgroundColor=none;strokeColor=#A8201A;fontColor=default;sketch=1;curveFitting=1;jiggle=2;" edge="1" parent="O45_TjRWL43LWCIV90A2-30" source="O45_TjRWL43LWCIV90A2-31" target="O45_TjRWL43LWCIV90A2-34">
          <mxGeometry relative="1" as="geometry">
            <Array as="points">
              <mxPoint x="157.5" y="92" />
              <mxPoint x="200" y="118" />
            </Array>
          </mxGeometry>
        </mxCell>
        <mxCell id="O45_TjRWL43LWCIV90A2-36" value="End" style="whiteSpace=wrap;html=1;labelBackgroundColor=none;fillColor=#FAE5C7;strokeColor=#0F8B8D;fontColor=#143642;sketch=1;curveFitting=1;jiggle=2;rounded=1;" vertex="1" parent="O45_TjRWL43LWCIV90A2-30">
          <mxGeometry x="85" y="220" width="100" height="40" as="geometry" />
        </mxCell>
        <mxCell id="O45_TjRWL43LWCIV90A2-37" value="" style="html=1;rounded=1;curved=0;sourcePerimeterSpacing=0;targetPerimeterSpacing=0;startSize=6;endSize=6;noEdgeStyle=1;orthogonal=1;labelBackgroundColor=none;strokeColor=#A8201A;fontColor=default;sketch=1;curveFitting=1;jiggle=2;" edge="1" parent="O45_TjRWL43LWCIV90A2-30" source="O45_TjRWL43LWCIV90A2-32" target="O45_TjRWL43LWCIV90A2-36">
          <mxGeometry relative="1" as="geometry">
            <Array as="points">
              <mxPoint x="70" y="182" />
              <mxPoint x="112.5" y="208" />
            </Array>
          </mxGeometry>
        </mxCell>
        <mxCell id="O45_TjRWL43LWCIV90A2-38" value="" style="html=1;rounded=1;curved=0;sourcePerimeterSpacing=0;targetPerimeterSpacing=0;startSize=6;endSize=6;noEdgeStyle=1;orthogonal=1;labelBackgroundColor=none;strokeColor=#A8201A;fontColor=default;sketch=1;curveFitting=1;jiggle=2;" edge="1" parent="O45_TjRWL43LWCIV90A2-30" source="O45_TjRWL43LWCIV90A2-34" target="O45_TjRWL43LWCIV90A2-36">
          <mxGeometry relative="1" as="geometry">
            <Array as="points">
              <mxPoint x="200" y="182" />
              <mxPoint x="157.5" y="208" />
            </Array>
          </mxGeometry>
        </mxCell>
        <mxCell id="O45_TjRWL43LWCIV90A2-39" value="Central Idea" style="ellipse;whiteSpace=wrap;html=1;align=center;newEdgeStyle={&quot;edgeStyle&quot;:&quot;entityRelationEdgeStyle&quot;,&quot;startArrow&quot;:&quot;none&quot;,&quot;endArrow&quot;:&quot;none&quot;,&quot;segment&quot;:10,&quot;curved&quot;:1,&quot;sourcePerimeterSpacing&quot;:0,&quot;targetPerimeterSpacing&quot;:0};treeFolding=1;treeMoving=1;labelBorderColor=default;labelBackgroundColor=none;fillColor=#FAE5C7;strokeColor=#0F8B8D;fontColor=#143642;sketch=1;curveFitting=1;jiggle=2;rounded=1;" vertex="1" parent="1">
          <mxGeometry x="360" y="230" width="100" height="40" as="geometry" />
        </mxCell>
        <mxCell id="O45_TjRWL43LWCIV90A2-40" value="" style="shape=corner;whiteSpace=wrap;html=1;labelBackgroundColor=none;fillColor=#FAE5C7;strokeColor=#0F8B8D;fontColor=#143642;sketch=1;curveFitting=1;jiggle=2;rounded=1;" vertex="1" parent="1">
          <mxGeometry x="350" y="220" width="80" height="80" as="geometry" />
        </mxCell>
        <mxCell id="O45_TjRWL43LWCIV90A2-41" value="" style="shape=lineEllipse;perimeter=ellipsePerimeter;whiteSpace=wrap;html=1;backgroundOutline=1;labelBackgroundColor=none;fillColor=#FAE5C7;strokeColor=#0F8B8D;fontColor=#143642;sketch=1;curveFitting=1;jiggle=2;rounded=1;" vertex="1" parent="1">
          <mxGeometry x="350" y="220" width="80" height="80" as="geometry" />
        </mxCell>
        <mxCell id="O45_TjRWL43LWCIV90A2-42" value="" style="shape=datastore;whiteSpace=wrap;html=1;labelBackgroundColor=none;fillColor=#FAE5C7;strokeColor=#0F8B8D;fontColor=#143642;sketch=1;curveFitting=1;jiggle=2;rounded=1;" vertex="1" parent="1">
          <mxGeometry x="360" y="230" width="60" height="60" as="geometry" />
        </mxCell>
        <mxCell id="O45_TjRWL43LWCIV90A2-43" value="" style="shape=manualInput;whiteSpace=wrap;html=1;labelBackgroundColor=none;fillColor=#FAE5C7;strokeColor=#0F8B8D;fontColor=#143642;sketch=1;curveFitting=1;jiggle=2;rounded=1;" vertex="1" parent="1">
          <mxGeometry x="350" y="220" width="80" height="80" as="geometry" />
        </mxCell>
        <mxCell id="O45_TjRWL43LWCIV90A2-44" value="" style="rhombus;whiteSpace=wrap;html=1;strokeWidth=2;fillWeight=-1;hachureGap=8;fillStyle=cross-hatch;fillColor=#FAE5C7;sketch=1;rounded=1;jiggle=2;curveFitting=1;strokeColor=#0F8B8D;fontColor=#143642;labelBackgroundColor=none;" vertex="1" parent="1">
          <mxGeometry x="330" y="250" width="120" height="60" as="geometry" />
        </mxCell>
        <mxCell id="O45_TjRWL43LWCIV90A2-45" value="" style="html=1;whiteSpace=wrap;shape=isoCube2;backgroundOutline=1;isoAngle=15;rounded=1;sketch=1;hachureGap=4;jiggle=2;curveFitting=1;strokeColor=#0F8B8D;fontColor=#143642;fillColor=#FAE5C7;labelBackgroundColor=none;" vertex="1" parent="1">
          <mxGeometry x="350" y="230" width="90" height="100" as="geometry" />
        </mxCell>
        <mxCell id="O45_TjRWL43LWCIV90A2-46" value="Assets" style="childLayout=tableLayout;recursiveResize=0;strokeColor=#0F8B8D;fillColor=#FAE5C7;shadow=1;rounded=1;sketch=1;hachureGap=4;jiggle=2;curveFitting=1;fontColor=#143642;labelBackgroundColor=none;" vertex="1" parent="1">
          <mxGeometry x="250" y="200" width="280" height="160" as="geometry" />
        </mxCell>
        <mxCell id="O45_TjRWL43LWCIV90A2-47" style="shape=tableRow;horizontal=0;startSize=0;swimlaneHead=0;swimlaneBody=0;top=0;left=0;bottom=0;right=0;dropTarget=0;collapsible=0;recursiveResize=0;expand=0;fontStyle=0;strokeColor=#0F8B8D;fillColor=#FAE5C7;rounded=1;sketch=1;hachureGap=4;jiggle=2;curveFitting=1;fontColor=#143642;labelBackgroundColor=none;" vertex="1" parent="O45_TjRWL43LWCIV90A2-46">
          <mxGeometry width="280" height="33" as="geometry" />
        </mxCell>
        <mxCell id="O45_TjRWL43LWCIV90A2-48" value="Title 1" style="connectable=0;recursiveResize=0;strokeColor=#0F8B8D;fillColor=#FAE5C7;align=center;fontStyle=1;fontColor=#143642;html=1;rounded=1;sketch=1;hachureGap=4;jiggle=2;curveFitting=1;labelBackgroundColor=none;" vertex="1" parent="O45_TjRWL43LWCIV90A2-47">
          <mxGeometry width="93" height="33" as="geometry">
            <mxRectangle width="93" height="33" as="alternateBounds" />
          </mxGeometry>
        </mxCell>
        <mxCell id="O45_TjRWL43LWCIV90A2-49" value="Title 2" style="connectable=0;recursiveResize=0;strokeColor=#0F8B8D;fillColor=#FAE5C7;align=center;fontStyle=1;fontColor=#143642;html=1;rounded=1;sketch=1;hachureGap=4;jiggle=2;curveFitting=1;labelBackgroundColor=none;" vertex="1" parent="O45_TjRWL43LWCIV90A2-47">
          <mxGeometry x="93" width="94" height="33" as="geometry">
            <mxRectangle width="94" height="33" as="alternateBounds" />
          </mxGeometry>
        </mxCell>
        <mxCell id="O45_TjRWL43LWCIV90A2-50" value="Title 3" style="connectable=0;recursiveResize=0;strokeColor=#0F8B8D;fillColor=#FAE5C7;align=center;fontStyle=1;fontColor=#143642;html=1;rounded=1;sketch=1;hachureGap=4;jiggle=2;curveFitting=1;labelBackgroundColor=none;" vertex="1" parent="O45_TjRWL43LWCIV90A2-47">
          <mxGeometry x="187" width="93" height="33" as="geometry">
            <mxRectangle width="93" height="33" as="alternateBounds" />
          </mxGeometry>
        </mxCell>
        <mxCell id="O45_TjRWL43LWCIV90A2-51" value="" style="shape=tableRow;horizontal=0;startSize=0;swimlaneHead=0;swimlaneBody=0;top=0;left=0;bottom=0;right=0;dropTarget=0;collapsible=0;recursiveResize=0;expand=0;fontStyle=0;strokeColor=#0F8B8D;fillColor=#FAE5C7;rounded=1;sketch=1;hachureGap=4;jiggle=2;curveFitting=1;fontColor=#143642;labelBackgroundColor=none;" vertex="1" parent="O45_TjRWL43LWCIV90A2-46">
          <mxGeometry y="33" width="280" height="32" as="geometry" />
        </mxCell>
        <mxCell id="O45_TjRWL43LWCIV90A2-52" value="Value 1" style="connectable=0;recursiveResize=0;strokeColor=#0F8B8D;fillColor=#FAE5C7;align=center;whiteSpace=wrap;html=1;rounded=1;sketch=1;hachureGap=4;jiggle=2;curveFitting=1;fontColor=#143642;labelBackgroundColor=none;" vertex="1" parent="O45_TjRWL43LWCIV90A2-51">
          <mxGeometry width="93" height="32" as="geometry">
            <mxRectangle width="93" height="32" as="alternateBounds" />
          </mxGeometry>
        </mxCell>
        <mxCell id="O45_TjRWL43LWCIV90A2-53" value="Value 2" style="connectable=0;recursiveResize=0;strokeColor=#0F8B8D;fillColor=#FAE5C7;align=center;whiteSpace=wrap;html=1;rounded=1;sketch=1;hachureGap=4;jiggle=2;curveFitting=1;fontColor=#143642;labelBackgroundColor=none;" vertex="1" parent="O45_TjRWL43LWCIV90A2-51">
          <mxGeometry x="93" width="94" height="32" as="geometry">
            <mxRectangle width="94" height="32" as="alternateBounds" />
          </mxGeometry>
        </mxCell>
        <mxCell id="O45_TjRWL43LWCIV90A2-54" value="Value 3" style="connectable=0;recursiveResize=0;strokeColor=#0F8B8D;fillColor=#FAE5C7;align=center;whiteSpace=wrap;html=1;rounded=1;sketch=1;hachureGap=4;jiggle=2;curveFitting=1;fontColor=#143642;labelBackgroundColor=none;" vertex="1" parent="O45_TjRWL43LWCIV90A2-51">
          <mxGeometry x="187" width="93" height="32" as="geometry">
            <mxRectangle width="93" height="32" as="alternateBounds" />
          </mxGeometry>
        </mxCell>
        <mxCell id="O45_TjRWL43LWCIV90A2-55" value="" style="shape=tableRow;horizontal=0;startSize=0;swimlaneHead=0;swimlaneBody=0;top=0;left=0;bottom=0;right=0;dropTarget=0;collapsible=0;recursiveResize=0;expand=0;fontStyle=1;strokeColor=#0F8B8D;fillColor=#FAE5C7;rounded=1;sketch=1;hachureGap=4;jiggle=2;curveFitting=1;fontColor=#143642;labelBackgroundColor=none;" vertex="1" parent="O45_TjRWL43LWCIV90A2-46">
          <mxGeometry y="65" width="280" height="31" as="geometry" />
        </mxCell>
        <mxCell id="O45_TjRWL43LWCIV90A2-56" value="Value 4" style="connectable=0;recursiveResize=0;strokeColor=#0F8B8D;fillColor=#FAE5C7;whiteSpace=wrap;html=1;rounded=1;sketch=1;hachureGap=4;jiggle=2;curveFitting=1;fontColor=#143642;labelBackgroundColor=none;" vertex="1" parent="O45_TjRWL43LWCIV90A2-55">
          <mxGeometry width="93" height="31" as="geometry">
            <mxRectangle width="93" height="31" as="alternateBounds" />
          </mxGeometry>
        </mxCell>
        <mxCell id="O45_TjRWL43LWCIV90A2-57" value="Value 5" style="connectable=0;recursiveResize=0;strokeColor=#0F8B8D;fillColor=#FAE5C7;whiteSpace=wrap;html=1;rounded=1;sketch=1;hachureGap=4;jiggle=2;curveFitting=1;fontColor=#143642;labelBackgroundColor=none;" vertex="1" parent="O45_TjRWL43LWCIV90A2-55">
          <mxGeometry x="93" width="94" height="31" as="geometry">
            <mxRectangle width="94" height="31" as="alternateBounds" />
          </mxGeometry>
        </mxCell>
        <mxCell id="O45_TjRWL43LWCIV90A2-58" value="Value 6" style="connectable=0;recursiveResize=0;strokeColor=#0F8B8D;fillColor=#FAE5C7;whiteSpace=wrap;html=1;rounded=1;sketch=1;hachureGap=4;jiggle=2;curveFitting=1;fontColor=#143642;labelBackgroundColor=none;" vertex="1" parent="O45_TjRWL43LWCIV90A2-55">
          <mxGeometry x="187" width="93" height="31" as="geometry">
            <mxRectangle width="93" height="31" as="alternateBounds" />
          </mxGeometry>
        </mxCell>
        <mxCell id="O45_TjRWL43LWCIV90A2-59" value="" style="shape=tableRow;horizontal=0;startSize=0;swimlaneHead=0;swimlaneBody=0;top=0;left=0;bottom=0;right=0;dropTarget=0;collapsible=0;recursiveResize=0;expand=0;fontStyle=0;strokeColor=#0F8B8D;fillColor=#FAE5C7;rounded=1;sketch=1;hachureGap=4;jiggle=2;curveFitting=1;fontColor=#143642;labelBackgroundColor=none;" vertex="1" parent="O45_TjRWL43LWCIV90A2-46">
          <mxGeometry y="96" width="280" height="33" as="geometry" />
        </mxCell>
        <mxCell id="O45_TjRWL43LWCIV90A2-60" value="Value 7" style="connectable=0;recursiveResize=0;strokeColor=#0F8B8D;fillColor=#FAE5C7;fontStyle=0;align=center;whiteSpace=wrap;html=1;rounded=1;sketch=1;hachureGap=4;jiggle=2;curveFitting=1;fontColor=#143642;labelBackgroundColor=none;" vertex="1" parent="O45_TjRWL43LWCIV90A2-59">
          <mxGeometry width="93" height="33" as="geometry">
            <mxRectangle width="93" height="33" as="alternateBounds" />
          </mxGeometry>
        </mxCell>
        <mxCell id="O45_TjRWL43LWCIV90A2-61" value="Value 8" style="connectable=0;recursiveResize=0;strokeColor=#0F8B8D;fillColor=#FAE5C7;fontStyle=0;align=center;whiteSpace=wrap;html=1;rounded=1;sketch=1;hachureGap=4;jiggle=2;curveFitting=1;fontColor=#143642;labelBackgroundColor=none;" vertex="1" parent="O45_TjRWL43LWCIV90A2-59">
          <mxGeometry x="93" width="94" height="33" as="geometry">
            <mxRectangle width="94" height="33" as="alternateBounds" />
          </mxGeometry>
        </mxCell>
        <mxCell id="O45_TjRWL43LWCIV90A2-62" value="Value 9" style="connectable=0;recursiveResize=0;strokeColor=#0F8B8D;fillColor=#FAE5C7;fontStyle=0;align=center;whiteSpace=wrap;html=1;rounded=1;sketch=1;hachureGap=4;jiggle=2;curveFitting=1;fontColor=#143642;labelBackgroundColor=none;" vertex="1" parent="O45_TjRWL43LWCIV90A2-59">
          <mxGeometry x="187" width="93" height="33" as="geometry">
            <mxRectangle width="93" height="33" as="alternateBounds" />
          </mxGeometry>
        </mxCell>
        <mxCell id="O45_TjRWL43LWCIV90A2-63" value="" style="shape=tableRow;horizontal=0;startSize=0;swimlaneHead=0;swimlaneBody=0;top=0;left=0;bottom=0;right=0;dropTarget=0;collapsible=0;recursiveResize=0;expand=0;fontStyle=1;strokeColor=#0F8B8D;fillColor=#FAE5C7;rounded=1;sketch=1;hachureGap=4;jiggle=2;curveFitting=1;fontColor=#143642;labelBackgroundColor=none;" vertex="1" parent="O45_TjRWL43LWCIV90A2-46">
          <mxGeometry y="129" width="280" height="31" as="geometry" />
        </mxCell>
        <mxCell id="O45_TjRWL43LWCIV90A2-64" value="Value 10" style="connectable=0;recursiveResize=0;strokeColor=#0F8B8D;fillColor=#FAE5C7;whiteSpace=wrap;html=1;rounded=1;sketch=1;hachureGap=4;jiggle=2;curveFitting=1;fontColor=#143642;labelBackgroundColor=none;" vertex="1" parent="O45_TjRWL43LWCIV90A2-63">
          <mxGeometry width="93" height="31" as="geometry">
            <mxRectangle width="93" height="31" as="alternateBounds" />
          </mxGeometry>
        </mxCell>
        <mxCell id="O45_TjRWL43LWCIV90A2-65" value="Value 11" style="connectable=0;recursiveResize=0;strokeColor=#0F8B8D;fillColor=#FAE5C7;whiteSpace=wrap;html=1;rounded=1;sketch=1;hachureGap=4;jiggle=2;curveFitting=1;fontColor=#143642;labelBackgroundColor=none;" vertex="1" parent="O45_TjRWL43LWCIV90A2-63">
          <mxGeometry x="93" width="94" height="31" as="geometry">
            <mxRectangle width="94" height="31" as="alternateBounds" />
          </mxGeometry>
        </mxCell>
        <mxCell id="O45_TjRWL43LWCIV90A2-66" value="Value 12" style="connectable=0;recursiveResize=0;strokeColor=#0F8B8D;fillColor=#FAE5C7;whiteSpace=wrap;html=1;rounded=1;sketch=1;hachureGap=4;jiggle=2;curveFitting=1;fontColor=#143642;labelBackgroundColor=none;" vertex="1" parent="O45_TjRWL43LWCIV90A2-63">
          <mxGeometry x="187" width="93" height="31" as="geometry">
            <mxRectangle width="93" height="31" as="alternateBounds" />
          </mxGeometry>
        </mxCell>
        <mxCell id="O45_TjRWL43LWCIV90A2-67" value="Cross-Functional Flowchart" style="shape=table;childLayout=tableLayout;startSize=40;collapsible=0;recursiveResize=0;expand=0;fontSize=16;rounded=1;sketch=1;hachureGap=4;jiggle=2;curveFitting=1;strokeColor=#0F8B8D;fontColor=#143642;fillColor=#FAE5C7;labelBackgroundColor=none;" vertex="1" parent="1">
          <mxGeometry x="190" y="80" width="400" height="400" as="geometry" />
        </mxCell>
        <mxCell id="O45_TjRWL43LWCIV90A2-68" value="Actor 1" style="shape=tableRow;horizontal=0;swimlaneHead=0;swimlaneBody=0;top=0;left=0;strokeColor=#0F8B8D;bottom=0;right=0;dropTarget=0;fontStyle=0;fillColor=none;points=[[0,0.5],[1,0.5]];portConstraint=eastwest;startSize=40;collapsible=0;recursiveResize=0;expand=0;fontSize=16;rounded=1;sketch=1;hachureGap=4;jiggle=2;curveFitting=1;fontColor=#143642;labelBackgroundColor=none;" vertex="1" parent="O45_TjRWL43LWCIV90A2-67">
          <mxGeometry y="40" width="400" height="120" as="geometry" />
        </mxCell>
        <mxCell id="O45_TjRWL43LWCIV90A2-69" value="Phase 1" style="swimlane;swimlaneHead=0;swimlaneBody=0;fontStyle=0;strokeColor=#0F8B8D;connectable=0;fillColor=none;startSize=40;collapsible=0;recursiveResize=0;expand=0;fontSize=16;rounded=1;sketch=1;hachureGap=4;jiggle=2;curveFitting=1;fontColor=#143642;labelBackgroundColor=none;" vertex="1" parent="O45_TjRWL43LWCIV90A2-68">
          <mxGeometry x="40" width="120" height="120" as="geometry">
            <mxRectangle width="120" height="120" as="alternateBounds" />
          </mxGeometry>
        </mxCell>
        <mxCell id="O45_TjRWL43LWCIV90A2-70" value="Phase 2" style="swimlane;swimlaneHead=0;swimlaneBody=0;fontStyle=0;strokeColor=#0F8B8D;connectable=0;fillColor=none;startSize=40;collapsible=0;recursiveResize=0;expand=0;fontSize=16;rounded=1;sketch=1;hachureGap=4;jiggle=2;curveFitting=1;fontColor=#143642;labelBackgroundColor=none;" vertex="1" parent="O45_TjRWL43LWCIV90A2-68">
          <mxGeometry x="160" width="120" height="120" as="geometry">
            <mxRectangle width="120" height="120" as="alternateBounds" />
          </mxGeometry>
        </mxCell>
        <mxCell id="O45_TjRWL43LWCIV90A2-71" value="Phase 3" style="swimlane;swimlaneHead=0;swimlaneBody=0;fontStyle=0;strokeColor=#0F8B8D;connectable=0;fillColor=none;startSize=40;collapsible=0;recursiveResize=0;expand=0;fontSize=16;rounded=1;sketch=1;hachureGap=4;jiggle=2;curveFitting=1;fontColor=#143642;labelBackgroundColor=none;" vertex="1" parent="O45_TjRWL43LWCIV90A2-68">
          <mxGeometry x="280" width="120" height="120" as="geometry">
            <mxRectangle width="120" height="120" as="alternateBounds" />
          </mxGeometry>
        </mxCell>
        <mxCell id="O45_TjRWL43LWCIV90A2-72" value="Actor 2" style="shape=tableRow;horizontal=0;swimlaneHead=0;swimlaneBody=0;top=0;left=0;strokeColor=#0F8B8D;bottom=0;right=0;dropTarget=0;fontStyle=0;fillColor=none;points=[[0,0.5],[1,0.5]];portConstraint=eastwest;startSize=40;collapsible=0;recursiveResize=0;expand=0;fontSize=16;rounded=1;sketch=1;hachureGap=4;jiggle=2;curveFitting=1;fontColor=#143642;labelBackgroundColor=none;" vertex="1" parent="O45_TjRWL43LWCIV90A2-67">
          <mxGeometry y="160" width="400" height="120" as="geometry" />
        </mxCell>
        <mxCell id="O45_TjRWL43LWCIV90A2-73" value="" style="swimlane;swimlaneHead=0;swimlaneBody=0;fontStyle=0;connectable=0;strokeColor=#0F8B8D;fillColor=none;startSize=0;collapsible=0;recursiveResize=0;expand=0;fontSize=16;rounded=1;sketch=1;hachureGap=4;jiggle=2;curveFitting=1;fontColor=#143642;labelBackgroundColor=none;" vertex="1" parent="O45_TjRWL43LWCIV90A2-72">
          <mxGeometry x="40" width="120" height="120" as="geometry">
            <mxRectangle width="120" height="120" as="alternateBounds" />
          </mxGeometry>
        </mxCell>
        <mxCell id="O45_TjRWL43LWCIV90A2-74" value="" style="swimlane;swimlaneHead=0;swimlaneBody=0;fontStyle=0;connectable=0;strokeColor=#0F8B8D;fillColor=none;startSize=0;collapsible=0;recursiveResize=0;expand=0;fontSize=16;rounded=1;sketch=1;hachureGap=4;jiggle=2;curveFitting=1;fontColor=#143642;labelBackgroundColor=none;" vertex="1" parent="O45_TjRWL43LWCIV90A2-72">
          <mxGeometry x="160" width="120" height="120" as="geometry">
            <mxRectangle width="120" height="120" as="alternateBounds" />
          </mxGeometry>
        </mxCell>
        <mxCell id="O45_TjRWL43LWCIV90A2-75" value="" style="swimlane;swimlaneHead=0;swimlaneBody=0;fontStyle=0;connectable=0;strokeColor=#0F8B8D;fillColor=none;startSize=0;collapsible=0;recursiveResize=0;expand=0;fontSize=16;rounded=1;sketch=1;hachureGap=4;jiggle=2;curveFitting=1;fontColor=#143642;labelBackgroundColor=none;" vertex="1" parent="O45_TjRWL43LWCIV90A2-72">
          <mxGeometry x="280" width="120" height="120" as="geometry">
            <mxRectangle width="120" height="120" as="alternateBounds" />
          </mxGeometry>
        </mxCell>
        <mxCell id="O45_TjRWL43LWCIV90A2-76" value="Actor 3" style="shape=tableRow;horizontal=0;swimlaneHead=0;swimlaneBody=0;top=0;left=0;strokeColor=#0F8B8D;bottom=0;right=0;dropTarget=0;fontStyle=0;fillColor=none;points=[[0,0.5],[1,0.5]];portConstraint=eastwest;startSize=40;collapsible=0;recursiveResize=0;expand=0;fontSize=16;rounded=1;sketch=1;hachureGap=4;jiggle=2;curveFitting=1;fontColor=#143642;labelBackgroundColor=none;" vertex="1" parent="O45_TjRWL43LWCIV90A2-67">
          <mxGeometry y="280" width="400" height="120" as="geometry" />
        </mxCell>
        <mxCell id="O45_TjRWL43LWCIV90A2-77" value="" style="swimlane;swimlaneHead=0;swimlaneBody=0;fontStyle=0;connectable=0;strokeColor=#0F8B8D;fillColor=none;startSize=0;collapsible=0;recursiveResize=0;expand=0;fontSize=16;rounded=1;sketch=1;hachureGap=4;jiggle=2;curveFitting=1;fontColor=#143642;labelBackgroundColor=none;" vertex="1" parent="O45_TjRWL43LWCIV90A2-76">
          <mxGeometry x="40" width="120" height="120" as="geometry">
            <mxRectangle width="120" height="120" as="alternateBounds" />
          </mxGeometry>
        </mxCell>
        <mxCell id="O45_TjRWL43LWCIV90A2-78" value="" style="swimlane;swimlaneHead=0;swimlaneBody=0;fontStyle=0;connectable=0;strokeColor=#0F8B8D;fillColor=none;startSize=0;collapsible=0;recursiveResize=0;expand=0;fontSize=16;rounded=1;sketch=1;hachureGap=4;jiggle=2;curveFitting=1;fontColor=#143642;labelBackgroundColor=none;" vertex="1" parent="O45_TjRWL43LWCIV90A2-76">
          <mxGeometry x="160" width="120" height="120" as="geometry">
            <mxRectangle width="120" height="120" as="alternateBounds" />
          </mxGeometry>
        </mxCell>
        <mxCell id="O45_TjRWL43LWCIV90A2-79" value="" style="swimlane;swimlaneHead=0;swimlaneBody=0;fontStyle=0;connectable=0;strokeColor=#0F8B8D;fillColor=none;startSize=0;collapsible=0;recursiveResize=0;expand=0;fontSize=16;rounded=1;sketch=1;hachureGap=4;jiggle=2;curveFitting=1;fontColor=#143642;labelBackgroundColor=none;" vertex="1" parent="O45_TjRWL43LWCIV90A2-76">
          <mxGeometry x="280" width="120" height="120" as="geometry">
            <mxRectangle width="120" height="120" as="alternateBounds" />
          </mxGeometry>
        </mxCell>
        <mxCell id="O45_TjRWL43LWCIV90A2-80" value="" style="edgeStyle=elbowEdgeStyle;elbow=horizontal;endArrow=classic;html=1;curved=0;rounded=0;endSize=8;startSize=8;sketch=1;hachureGap=4;jiggle=2;curveFitting=1;strokeColor=#A8201A;fontColor=default;fillColor=#FAE5C7;labelBackgroundColor=none;" edge="1" parent="1">
          <mxGeometry width="50" height="50" relative="1" as="geometry">
            <mxPoint x="370" y="300" as="sourcePoint" />
            <mxPoint x="420" y="250" as="targetPoint" />
          </mxGeometry>
        </mxCell>
        <mxCell id="O45_TjRWL43LWCIV90A2-81" value="" style="ellipse;whiteSpace=wrap;html=1;rounded=1;sketch=1;hachureGap=4;jiggle=2;curveFitting=1;strokeColor=#0F8B8D;fontColor=#143642;fillColor=#FAE5C7;labelBackgroundColor=none;" vertex="1" parent="1">
          <mxGeometry x="330" y="330" width="80" height="80" as="geometry" />
        </mxCell>
        <mxCell id="O45_TjRWL43LWCIV90A2-82" value="" style="childLayout=tableLayout;recursiveResize=0;shadow=0;fillColor=none;rounded=1;sketch=1;hachureGap=4;jiggle=2;curveFitting=1;strokeColor=#0F8B8D;fontColor=#143642;labelBackgroundColor=none;" vertex="1" parent="1">
          <mxGeometry x="280" y="300" width="180" height="140" as="geometry" />
        </mxCell>
        <mxCell id="O45_TjRWL43LWCIV90A2-83" value="" style="shape=tableRow;horizontal=0;startSize=0;swimlaneHead=0;swimlaneBody=0;top=0;left=0;bottom=0;right=0;dropTarget=0;collapsible=0;recursiveResize=0;expand=0;fontStyle=0;fillColor=none;strokeColor=#0F8B8D;rounded=1;sketch=1;hachureGap=4;jiggle=2;curveFitting=1;fontColor=#143642;labelBackgroundColor=none;" vertex="1" parent="O45_TjRWL43LWCIV90A2-82">
          <mxGeometry width="180" height="47" as="geometry" />
        </mxCell>
        <mxCell id="O45_TjRWL43LWCIV90A2-84" value="Value 1" style="connectable=0;recursiveResize=0;strokeColor=#0F8B8D;fillColor=none;align=center;whiteSpace=wrap;html=1;rounded=1;sketch=1;hachureGap=4;jiggle=2;curveFitting=1;fontColor=#143642;labelBackgroundColor=none;" vertex="1" parent="O45_TjRWL43LWCIV90A2-83">
          <mxGeometry width="60" height="47" as="geometry">
            <mxRectangle width="60" height="47" as="alternateBounds" />
          </mxGeometry>
        </mxCell>
        <mxCell id="O45_TjRWL43LWCIV90A2-85" value="Value 2" style="connectable=0;recursiveResize=0;strokeColor=#0F8B8D;fillColor=none;align=center;whiteSpace=wrap;html=1;rounded=1;sketch=1;hachureGap=4;jiggle=2;curveFitting=1;fontColor=#143642;labelBackgroundColor=none;" vertex="1" parent="O45_TjRWL43LWCIV90A2-83">
          <mxGeometry x="60" width="60" height="47" as="geometry">
            <mxRectangle width="60" height="47" as="alternateBounds" />
          </mxGeometry>
        </mxCell>
        <mxCell id="O45_TjRWL43LWCIV90A2-86" value="Value 3" style="connectable=0;recursiveResize=0;strokeColor=#0F8B8D;fillColor=none;align=center;whiteSpace=wrap;html=1;rounded=1;sketch=1;hachureGap=4;jiggle=2;curveFitting=1;fontColor=#143642;labelBackgroundColor=none;" vertex="1" parent="O45_TjRWL43LWCIV90A2-83">
          <mxGeometry x="120" width="60" height="47" as="geometry">
            <mxRectangle width="60" height="47" as="alternateBounds" />
          </mxGeometry>
        </mxCell>
        <mxCell id="O45_TjRWL43LWCIV90A2-87" style="shape=tableRow;horizontal=0;startSize=0;swimlaneHead=0;swimlaneBody=0;top=0;left=0;bottom=0;right=0;dropTarget=0;collapsible=0;recursiveResize=0;expand=0;fontStyle=0;fillColor=none;strokeColor=#0F8B8D;rounded=1;sketch=1;hachureGap=4;jiggle=2;curveFitting=1;fontColor=#143642;labelBackgroundColor=none;" vertex="1" parent="O45_TjRWL43LWCIV90A2-82">
          <mxGeometry y="47" width="180" height="46" as="geometry" />
        </mxCell>
        <mxCell id="O45_TjRWL43LWCIV90A2-88" value="Value 4" style="connectable=0;recursiveResize=0;strokeColor=#0F8B8D;fillColor=none;align=center;whiteSpace=wrap;html=1;rounded=1;sketch=1;hachureGap=4;jiggle=2;curveFitting=1;fontColor=#143642;labelBackgroundColor=none;" vertex="1" parent="O45_TjRWL43LWCIV90A2-87">
          <mxGeometry width="60" height="46" as="geometry">
            <mxRectangle width="60" height="46" as="alternateBounds" />
          </mxGeometry>
        </mxCell>
        <mxCell id="O45_TjRWL43LWCIV90A2-89" value="Value 5" style="connectable=0;recursiveResize=0;strokeColor=#0F8B8D;fillColor=none;align=center;whiteSpace=wrap;html=1;rounded=1;sketch=1;hachureGap=4;jiggle=2;curveFitting=1;fontColor=#143642;labelBackgroundColor=none;" vertex="1" parent="O45_TjRWL43LWCIV90A2-87">
          <mxGeometry x="60" width="60" height="46" as="geometry">
            <mxRectangle width="60" height="46" as="alternateBounds" />
          </mxGeometry>
        </mxCell>
        <mxCell id="O45_TjRWL43LWCIV90A2-90" value="Value 6" style="connectable=0;recursiveResize=0;strokeColor=#0F8B8D;fillColor=none;align=center;whiteSpace=wrap;html=1;rounded=1;sketch=1;hachureGap=4;jiggle=2;curveFitting=1;fontColor=#143642;labelBackgroundColor=none;" vertex="1" parent="O45_TjRWL43LWCIV90A2-87">
          <mxGeometry x="120" width="60" height="46" as="geometry">
            <mxRectangle width="60" height="46" as="alternateBounds" />
          </mxGeometry>
        </mxCell>
        <mxCell id="O45_TjRWL43LWCIV90A2-91" style="shape=tableRow;horizontal=0;startSize=0;swimlaneHead=0;swimlaneBody=0;top=0;left=0;bottom=0;right=0;dropTarget=0;collapsible=0;recursiveResize=0;expand=0;fontStyle=0;fillColor=none;strokeColor=#0F8B8D;rounded=1;sketch=1;hachureGap=4;jiggle=2;curveFitting=1;fontColor=#143642;labelBackgroundColor=none;" vertex="1" parent="O45_TjRWL43LWCIV90A2-82">
          <mxGeometry y="93" width="180" height="47" as="geometry" />
        </mxCell>
        <mxCell id="O45_TjRWL43LWCIV90A2-92" value="Value 7" style="connectable=0;recursiveResize=0;strokeColor=#0F8B8D;fillColor=none;align=center;whiteSpace=wrap;html=1;rounded=1;sketch=1;hachureGap=4;jiggle=2;curveFitting=1;fontColor=#143642;labelBackgroundColor=none;" vertex="1" parent="O45_TjRWL43LWCIV90A2-91">
          <mxGeometry width="60" height="47" as="geometry">
            <mxRectangle width="60" height="47" as="alternateBounds" />
          </mxGeometry>
        </mxCell>
        <mxCell id="O45_TjRWL43LWCIV90A2-93" value="Value 8" style="connectable=0;recursiveResize=0;strokeColor=#0F8B8D;fillColor=none;align=center;whiteSpace=wrap;html=1;rounded=1;sketch=1;hachureGap=4;jiggle=2;curveFitting=1;fontColor=#143642;labelBackgroundColor=none;" vertex="1" parent="O45_TjRWL43LWCIV90A2-91">
          <mxGeometry x="60" width="60" height="47" as="geometry">
            <mxRectangle width="60" height="47" as="alternateBounds" />
          </mxGeometry>
        </mxCell>
        <mxCell id="O45_TjRWL43LWCIV90A2-94" value="Value 9" style="connectable=0;recursiveResize=0;strokeColor=#0F8B8D;fillColor=none;align=center;whiteSpace=wrap;html=1;rounded=1;sketch=1;hachureGap=4;jiggle=2;curveFitting=1;fontColor=#143642;labelBackgroundColor=none;" vertex="1" parent="O45_TjRWL43LWCIV90A2-91">
          <mxGeometry x="120" width="60" height="47" as="geometry">
            <mxRectangle width="60" height="47" as="alternateBounds" />
          </mxGeometry>
        </mxCell>
        <mxCell id="O45_TjRWL43LWCIV90A2-95" value="Table" style="shape=table;startSize=30;container=1;collapsible=0;childLayout=tableLayout;strokeColor=#0F8B8D;fontSize=16;rounded=1;sketch=1;hachureGap=4;jiggle=2;curveFitting=1;fontColor=#143642;fillColor=#FAE5C7;labelBackgroundColor=none;" vertex="1" parent="1">
          <mxGeometry x="280" y="300" width="180" height="150" as="geometry" />
        </mxCell>
        <mxCell id="O45_TjRWL43LWCIV90A2-96" value="" style="shape=tableRow;horizontal=0;startSize=0;swimlaneHead=0;swimlaneBody=0;strokeColor=#0F8B8D;top=0;left=0;bottom=0;right=0;collapsible=0;dropTarget=0;fillColor=none;points=[[0,0.5],[1,0.5]];portConstraint=eastwest;fontSize=16;rounded=1;sketch=1;hachureGap=4;jiggle=2;curveFitting=1;fontColor=#143642;labelBackgroundColor=none;" vertex="1" parent="O45_TjRWL43LWCIV90A2-95">
          <mxGeometry y="30" width="180" height="40" as="geometry" />
        </mxCell>
        <mxCell id="O45_TjRWL43LWCIV90A2-97" value="" style="shape=partialRectangle;html=1;whiteSpace=wrap;connectable=0;strokeColor=#0F8B8D;overflow=hidden;fillColor=none;top=0;left=0;bottom=0;right=0;pointerEvents=1;fontSize=16;rounded=1;sketch=1;hachureGap=4;jiggle=2;curveFitting=1;fontColor=#143642;labelBackgroundColor=none;" vertex="1" parent="O45_TjRWL43LWCIV90A2-96">
          <mxGeometry width="60" height="40" as="geometry">
            <mxRectangle width="60" height="40" as="alternateBounds" />
          </mxGeometry>
        </mxCell>
        <mxCell id="O45_TjRWL43LWCIV90A2-98" value="" style="shape=partialRectangle;html=1;whiteSpace=wrap;connectable=0;strokeColor=#0F8B8D;overflow=hidden;fillColor=none;top=0;left=0;bottom=0;right=0;pointerEvents=1;fontSize=16;rounded=1;sketch=1;hachureGap=4;jiggle=2;curveFitting=1;fontColor=#143642;labelBackgroundColor=none;" vertex="1" parent="O45_TjRWL43LWCIV90A2-96">
          <mxGeometry x="60" width="60" height="40" as="geometry">
            <mxRectangle width="60" height="40" as="alternateBounds" />
          </mxGeometry>
        </mxCell>
        <mxCell id="O45_TjRWL43LWCIV90A2-99" value="" style="shape=partialRectangle;html=1;whiteSpace=wrap;connectable=0;strokeColor=#0F8B8D;overflow=hidden;fillColor=none;top=0;left=0;bottom=0;right=0;pointerEvents=1;fontSize=16;rounded=1;sketch=1;hachureGap=4;jiggle=2;curveFitting=1;fontColor=#143642;labelBackgroundColor=none;" vertex="1" parent="O45_TjRWL43LWCIV90A2-96">
          <mxGeometry x="120" width="60" height="40" as="geometry">
            <mxRectangle width="60" height="40" as="alternateBounds" />
          </mxGeometry>
        </mxCell>
        <mxCell id="O45_TjRWL43LWCIV90A2-100" value="" style="shape=tableRow;horizontal=0;startSize=0;swimlaneHead=0;swimlaneBody=0;strokeColor=#0F8B8D;top=0;left=0;bottom=0;right=0;collapsible=0;dropTarget=0;fillColor=none;points=[[0,0.5],[1,0.5]];portConstraint=eastwest;fontSize=16;rounded=1;sketch=1;hachureGap=4;jiggle=2;curveFitting=1;fontColor=#143642;labelBackgroundColor=none;" vertex="1" parent="O45_TjRWL43LWCIV90A2-95">
          <mxGeometry y="70" width="180" height="40" as="geometry" />
        </mxCell>
        <mxCell id="O45_TjRWL43LWCIV90A2-101" value="" style="shape=partialRectangle;html=1;whiteSpace=wrap;connectable=0;strokeColor=#0F8B8D;overflow=hidden;fillColor=none;top=0;left=0;bottom=0;right=0;pointerEvents=1;fontSize=16;rounded=1;sketch=1;hachureGap=4;jiggle=2;curveFitting=1;fontColor=#143642;labelBackgroundColor=none;" vertex="1" parent="O45_TjRWL43LWCIV90A2-100">
          <mxGeometry width="60" height="40" as="geometry">
            <mxRectangle width="60" height="40" as="alternateBounds" />
          </mxGeometry>
        </mxCell>
        <mxCell id="O45_TjRWL43LWCIV90A2-102" value="" style="shape=partialRectangle;html=1;whiteSpace=wrap;connectable=0;strokeColor=#0F8B8D;overflow=hidden;fillColor=none;top=0;left=0;bottom=0;right=0;pointerEvents=1;fontSize=16;rounded=1;sketch=1;hachureGap=4;jiggle=2;curveFitting=1;fontColor=#143642;labelBackgroundColor=none;" vertex="1" parent="O45_TjRWL43LWCIV90A2-100">
          <mxGeometry x="60" width="60" height="40" as="geometry">
            <mxRectangle width="60" height="40" as="alternateBounds" />
          </mxGeometry>
        </mxCell>
        <mxCell id="O45_TjRWL43LWCIV90A2-103" value="" style="shape=partialRectangle;html=1;whiteSpace=wrap;connectable=0;strokeColor=#0F8B8D;overflow=hidden;fillColor=none;top=0;left=0;bottom=0;right=0;pointerEvents=1;fontSize=16;rounded=1;sketch=1;hachureGap=4;jiggle=2;curveFitting=1;fontColor=#143642;labelBackgroundColor=none;" vertex="1" parent="O45_TjRWL43LWCIV90A2-100">
          <mxGeometry x="120" width="60" height="40" as="geometry">
            <mxRectangle width="60" height="40" as="alternateBounds" />
          </mxGeometry>
        </mxCell>
        <mxCell id="O45_TjRWL43LWCIV90A2-104" value="" style="shape=tableRow;horizontal=0;startSize=0;swimlaneHead=0;swimlaneBody=0;strokeColor=#0F8B8D;top=0;left=0;bottom=0;right=0;collapsible=0;dropTarget=0;fillColor=none;points=[[0,0.5],[1,0.5]];portConstraint=eastwest;fontSize=16;rounded=1;sketch=1;hachureGap=4;jiggle=2;curveFitting=1;fontColor=#143642;labelBackgroundColor=none;" vertex="1" parent="O45_TjRWL43LWCIV90A2-95">
          <mxGeometry y="110" width="180" height="40" as="geometry" />
        </mxCell>
        <mxCell id="O45_TjRWL43LWCIV90A2-105" value="" style="shape=partialRectangle;html=1;whiteSpace=wrap;connectable=0;strokeColor=#0F8B8D;overflow=hidden;fillColor=none;top=0;left=0;bottom=0;right=0;pointerEvents=1;fontSize=16;rounded=1;sketch=1;hachureGap=4;jiggle=2;curveFitting=1;fontColor=#143642;labelBackgroundColor=none;" vertex="1" parent="O45_TjRWL43LWCIV90A2-104">
          <mxGeometry width="60" height="40" as="geometry">
            <mxRectangle width="60" height="40" as="alternateBounds" />
          </mxGeometry>
        </mxCell>
        <mxCell id="O45_TjRWL43LWCIV90A2-106" value="" style="shape=partialRectangle;html=1;whiteSpace=wrap;connectable=0;strokeColor=#0F8B8D;overflow=hidden;fillColor=none;top=0;left=0;bottom=0;right=0;pointerEvents=1;fontSize=16;rounded=1;sketch=1;hachureGap=4;jiggle=2;curveFitting=1;fontColor=#143642;labelBackgroundColor=none;" vertex="1" parent="O45_TjRWL43LWCIV90A2-104">
          <mxGeometry x="60" width="60" height="40" as="geometry">
            <mxRectangle width="60" height="40" as="alternateBounds" />
          </mxGeometry>
        </mxCell>
        <mxCell id="O45_TjRWL43LWCIV90A2-107" value="" style="shape=partialRectangle;html=1;whiteSpace=wrap;connectable=0;strokeColor=#0F8B8D;overflow=hidden;fillColor=none;top=0;left=0;bottom=0;right=0;pointerEvents=1;fontSize=16;rounded=1;sketch=1;hachureGap=4;jiggle=2;curveFitting=1;fontColor=#143642;labelBackgroundColor=none;" vertex="1" parent="O45_TjRWL43LWCIV90A2-104">
          <mxGeometry x="120" width="60" height="40" as="geometry">
            <mxRectangle width="60" height="40" as="alternateBounds" />
          </mxGeometry>
        </mxCell>
        <mxCell id="O45_TjRWL43LWCIV90A2-108" value="Label" style="label;whiteSpace=wrap;html=1;image=img/clipart/Gear_128x128.png;rounded=1;sketch=1;hachureGap=4;jiggle=2;curveFitting=1;strokeColor=#0F8B8D;fontColor=#143642;fillColor=#FAE5C7;labelBackgroundColor=none;" vertex="1" parent="1">
          <mxGeometry x="300" y="340" width="140" height="60" as="geometry" />
        </mxCell>
        <mxCell id="O45_TjRWL43LWCIV90A2-109" value="" style="shape=ext;double=1;whiteSpace=wrap;html=1;aspect=fixed;rounded=1;sketch=1;hachureGap=4;jiggle=2;curveFitting=1;strokeColor=#0F8B8D;fontColor=#143642;fillColor=#FAE5C7;labelBackgroundColor=none;" vertex="1" parent="1">
          <mxGeometry x="330" y="330" width="80" height="80" as="geometry" />
        </mxCell>
      </root>
    </mxGraphModel>
  </diagram>
</mxfile>
